<svg xmlns="http://www.w3.org/2000/svg" id="Layer_2" viewBox="0 0 297.62 151.2"><defs><style>.cls-1{fill:#cf2030}.cls-2{fill:#ee5126}.cls-3{fill:#fff}.cls-4{fill:#f89c25}</style></defs><g id="Layer_1-2"><path d="M263.23 90.82c7.79-5.01 14.96-11.86 15.02-21.13l.36-54.61-14.08-.08.02-14.99 33.07.02-.47 69.45c-.08 11.42-4.97 21.61-14.17 27.93l-8.55 5.88c-4.2-3.89-8.01-7.37-11.2-12.46ZM258.1 63.07c.73 5.91.62 10.94.07 16.84H207.6L207.49.06h19.04l-.02 62.93 31.59.08ZM165.23 39.12l32.64 40.34-23.51.54-25.63-31.35-.44 31.08-18.68-.04-.12-79.63 19-.04.21 32.34L170.99.14l22.05.03-27.81 38.95z" class="cls-3"/><path d="M119.98 148.95c.6.7.12 1.54-.76 1.99l-21.38-.07-56.33-56.36 55.33-55.36 24.94.04-55.77 55.83 53.96 53.92Z" class="cls-2"/><path d="M78.22 149.33c.58.59-2.02 1.88-2.61 1.87l-19.77-.49L0 95.03l55.84-55.88 23.95.05-55.76 55.81 54.2 54.32Z" class="cls-1"/><path d="m173.62 92.27 24.17-.08-58.8 58.89-27.47-28.06-27.95-28.53 14.27-14.4 23.9.05-14.18 14.38 22.03 22.36c3.22 3.27 5.45 7.35 9.89 9.67l34.13-34.28Z" class="cls-4"/></g></svg>